# xmcd
#
# Track frame offsets:
#	150
#	14639
#	28797
#	47149
#	68081
#	81369
#	95904
#	111926
#	128689
#	144149
#	158844
#	178871
#	194264
#	212701
#	229357
#	243849
#	260430
#	274568
#	300134
#
# Disc length: 4311 seconds
#
# Revision: 1
# Processed by: cddbd v1.5.2PL0 Copyright (c) Steve Scherf et al.
# Submitted via: audiograbber 1.83.01
#
DISCID=0810d513
DTITLE=Lucy Hale - Road Between (Deluxe)
DYEAR=2014
DGENRE=Country
TTITLE0=You Sound Good To Me
TTITLE1=From The Backseat
TTITLE2=Nervous Girls
TTITLE3=Red Dress (Duet with Joe Nichols)
TTITLE4=Goodbye Gone
TTITLE5=Kiss Me
TTITLE6=Road Between
TTITLE7=Lie A Little Better
TTITLE8=That's What I Call Crazy
TTITLE9=Love Tonight
TTITLE10=Just Another Song
TTITLE11=My Little Black Wedding Dress
TTITLE12=Feels Like Home
TTITLE13=Loved
TTITLE14=Kiss Me (Live acoustic)
TTITLE15=Road Between (Live acoustic)
TTITLE16=Runaway Circus
TTITLE17=Those Three Words
TTITLE18=Piste de données
EXTD=
EXTT0=
EXTT1=
EXTT2=
EXTT3=
EXTT4=
EXTT5=
EXTT6=
EXTT7=
EXTT8=
EXTT9=
EXTT10=
EXTT11=
EXTT12=
EXTT13=
EXTT14=
EXTT15=
EXTT16=
EXTT17=
EXTT18=
PLAYORDER=
